<?xml version="1.0" encoding="UTF-8" standalone="no"?>
<!-- Created with Inkscape (http://www.inkscape.org/) -->

<svg
   xmlns:dc="http://purl.org/dc/elements/1.1/"
   xmlns:cc="http://creativecommons.org/ns#"
   xmlns:rdf="http://www.w3.org/1999/02/22-rdf-syntax-ns#"
   xmlns:svg="http://www.w3.org/2000/svg"
   xmlns="http://www.w3.org/2000/svg"
   xmlns:sodipodi="http://sodipodi.sourceforge.net/DTD/sodipodi-0.dtd"
   xmlns:inkscape="http://www.inkscape.org/namespaces/inkscape"
   width="360.01001mm"
   height="360mm"
   viewBox="0 0 360.01001 360"
   version="1.1"
   id="svg8"
   inkscape:version="0.92.4 (5da689c313, 2019-01-14)"
   sodipodi:docname="dessin.svg">
  <defs
     id="defs2" />
  <sodipodi:namedview
     id="base"
     pagecolor="#ffffff"
     bordercolor="#666666"
     borderopacity="1.0"
     inkscape:pageopacity="0.0"
     inkscape:pageshadow="2"
     inkscape:zoom="0.35"
     inkscape:cx="-1132.126"
     inkscape:cy="1070.2362"
     inkscape:document-units="mm"
     inkscape:current-layer="layer1"
     showgrid="false"
     inkscape:window-width="1920"
     inkscape:window-height="1001"
     inkscape:window-x="-9"
     inkscape:window-y="-9"
     inkscape:window-maximized="1"
     fit-margin-top="0"
     fit-margin-left="0"
     fit-margin-right="0"
     fit-margin-bottom="0" />
  <metadata
     id="metadata5">
    <rdf:RDF>
      <cc:Work
         rdf:about="">
        <dc:format>image/svg+xml</dc:format>
        <dc:type
           rdf:resource="http://purl.org/dc/dcmitype/StillImage" />
        <dc:title></dc:title>
      </cc:Work>
    </rdf:RDF>
  </metadata>
  <g
     inkscape:label="Calque 1"
     inkscape:groupmode="layer"
     id="layer1"
     transform="translate(-72,-72)">
    <path
       d="m165.16 333.19 5.66 5.66-59.99 59.99-5.66-5.66 59.99-59.99zm168.03 5.65 59.99 59.99 5.66-5.66-59.99-59.99-5.66 5.66zm65.64-228.01-5.66-5.66-35.71 35.71 5.66 5.66 35.71-35.71zm-228.02 54.33-59.99-59.99-5.66 5.66 59.99 59.99 5.66-5.66zm26.81 34.96a4.215 4.215 0 0 1-.21-4.32 4.202 4.202 0 0 1 3.71-2.22h41.59a4.78 4.78 0 0 1 4.78 4.78c0 2.06-1.31 3.88-3.27 4.53l-15.04 5.01 2.74 12.33 81.64-18.2 2.63 11.8-73.83 53.37 3.45 15.5-7.81 1.74-3.32-14.94H165.4l-2.15-7.37 28.02-17.88c-6.15-7.48-15.46-12.26-25.87-12.26-18.47 0-33.5 15.03-33.5 33.51 0 18.48 15.03 33.51 33.5 33.51 15.35 0 28.32-10.39 32.26-24.51h16.41c-4.23 23.04-24.41 40.51-48.67 40.51-27.34 0-49.5-22.17-49.5-49.51 0-27.34 22.16-49.51 49.5-49.51 24.26 0 44.44 17.47 48.67 40.51h-16.41c-.53-1.91-1.24-3.75-2.08-5.51l-16.47 10.51h53.79l-6.68-30.06-12.86 8.21c-1.27-2.36-2.72-4.6-4.32-6.74l15.33-9.78-2.82-12.69-.56.19c-1.91.64-3.88.94-5.82.94-6.06 0-11.92-2.99-15.42-8.23l-2.13-3.22zm36.04 27.92 6.81 30.66 64.36-46.53-71.17 15.87zm14.59 141.05-7.85-9a55.502 55.502 0 0 0-12.77 21.95h18.11l3.33-7c.94-1.96.61-4.3-.82-5.95zm-22.5-27.89s-2.69 5.45 1.15 12.87h14.86l10.25 11.74a10.49 10.49 0 0 1 1.57 11.4l-1.51 3.16L299.11 407c2.69-4.66 4.87-10.52 5.68-18.16l-58.12-58.12-20.92 10.48zm.59 45.85h-.02s-1.29 5.93-1.14 11.29h-17.36l-11.58 6.19 28.95 9.89c7.48 2.56 14.81 5.54 21.89 9.05 6.79 3.37 18.32 7.82 32.84 8.53 1.1-3.81 3.36-7.1 6.77-10.52 2.19-2.19 5-4.69 7.77-7.94l-46.81-26.5h-21.31zM332.5 266.37l7.81-1.74-7.23-32.47c1.09-.11 2.2-.17 3.32-.17 18.47 0 33.5 15.03 33.5 33.51 0 18.48-15.03 33.51-33.5 33.51s-33.5-15.03-33.5-33.51c0-12.95 7.39-24.2 18.17-29.78l-3.56-15.99c-17.96 7.43-30.61 25.12-30.61 45.77 0 27.34 22.16 49.51 49.5 49.51s49.5-22.17 49.5-49.51c0-27.34-22.16-49.51-49.5-49.51-2.31 0-4.58.18-6.81.49l-6.44-28.94 12.98-2.89-12.26-55.08-7.81 1.74 10.52 47.27-12.98 2.89 18.9 84.9zM278.25 162.8s2.69-5.45-1.15-12.87h-14.86l-10.25-11.74a10.469 10.469 0 0 1-1.56-11.4l1.51-3.16L204.9 97c-2.69 4.66-4.87 10.52-5.68 18.16l58.12 58.12 20.91-10.48zm-22.5-27.89 7.85 9a55.502 55.502 0 0 0 12.77-21.95h-18.11l-3.33 7a5.46 5.46 0 0 0 .82 5.95zm21.91-17.96h.02s1.29-5.93 1.14-11.29h17.36l11.58-6.19-28.95-9.89c-7.48-2.56-14.81-5.54-21.89-9.05-6.79-3.37-18.32-7.82-32.84-8.53-1.1 3.81-3.36 7.1-6.77 10.52-2.19 2.19-5 4.69-7.77 7.94l46.81 26.5h21.31z"
       id="path5"
       inkscape:connector-curvature="0" />
  </g>
</svg>
