<?xml version="1.0" encoding="UTF-8" standalone="no"?>
<!-- Created with Inkscape (http://www.inkscape.org/) -->

<svg
   xmlns:dc="http://purl.org/dc/elements/1.1/"
   xmlns:cc="http://creativecommons.org/ns#"
   xmlns:rdf="http://www.w3.org/1999/02/22-rdf-syntax-ns#"
   xmlns:svg="http://www.w3.org/2000/svg"
   xmlns="http://www.w3.org/2000/svg"
   xmlns:sodipodi="http://sodipodi.sourceforge.net/DTD/sodipodi-0.dtd"
   xmlns:inkscape="http://www.inkscape.org/namespaces/inkscape"
   width="360.01001mm"
   height="360mm"
   viewBox="0 0 360.01001 360"
   version="1.1"
   id="svg8"
   inkscape:version="0.92.4 (5da689c313, 2019-01-14)"
   sodipodi:docname="dessin.svg">
  <defs
     id="defs2" />
  <sodipodi:namedview
     id="base"
     pagecolor="#ffffff"
     bordercolor="#666666"
     borderopacity="1.0"
     inkscape:pageopacity="0.0"
     inkscape:pageshadow="2"
     inkscape:zoom="0.35"
     inkscape:cx="-1132.126"
     inkscape:cy="1070.2362"
     inkscape:document-units="mm"
     inkscape:current-layer="layer1"
     showgrid="false"
     inkscape:window-width="1920"
     inkscape:window-height="1001"
     inkscape:window-x="-9"
     inkscape:window-y="-9"
     inkscape:window-maximized="1"
     fit-margin-top="0"
     fit-margin-left="0"
     fit-margin-right="0"
     fit-margin-bottom="0" />
  <metadata
     id="metadata5">
    <rdf:RDF>
      <cc:Work
         rdf:about="">
        <dc:format>image/svg+xml</dc:format>
        <dc:type
           rdf:resource="http://purl.org/dc/dcmitype/StillImage" />
        <dc:title></dc:title>
      </cc:Work>
    </rdf:RDF>
  </metadata>
  <g
     inkscape:label="Calque 1"
     inkscape:groupmode="layer"
     id="layer1"
     transform="translate(-72,-72)">
    <path
       d="m335.82 330.17 63 63-5.66 5.66-63-63-7-7 5.66-5.66 7 7zm13.81-59.26 1.65 4.72c21.56-7.54 37.67-26.11 42.05-48.47l-4.91-.96c-4.03 20.62-18.9 37.75-38.79 44.71zm-53.9 95.67c4.41 8.07 6.62 19.96.5 32.86h-5.32a2.5 2.5 0 0 0 0 5h2.53a54.488 54.488 0 0 1-4.67 6.25 2.503 2.503 0 0 0-4.26-2.16l-5.61 5.79c-.96.99-.94 2.57.05 3.54.5.49 1.16.72 1.81.7a90.13 90.13 0 0 1-6.32 4.89c-.01.01-.03.02-.04.03v-2.55a2.5 2.5 0 0 0-5 0v5.72c-15.11 8.56-27.57 5.81-38.69-1.15l1.65-1.95c.89-1.05.76-2.63-.3-3.52a2.493 2.493 0 0 0-3.52.3l-1.99 2.35c-2.8-2.05-5.53-4.32-8.2-6.69l18.24-21.59c4.28-5.24-2.11-7.82-2.41-10.25-.32-2.63.64-4.65 1.96-6.09v-23.98l-10.15-18.29 4.37-2.43 9.75 17.57h22.14c3.92-2.84 9.49-4.86 13.62-2.99.03 0 12.76 5.67 19.86 18.64zm-37.92-10.64h-16.65v19.19l9.7 2.71c4.91 1.29 9.45 1.87 11.94-1.8 2.17-3.19 3.29-5.28 4.35-8.38 1.96-5.74-7.19-10.28-9.34-11.72zm26.31 6.38a2.493 2.493 0 0 0-3.52.3l-5.9 6.99c-.89 1.05-.76 2.63.3 3.52 1.05.89 2.63.76 3.52-.3l5.9-6.99c.89-1.06.76-2.63-.3-3.52zm114.72-251.55-5.66-5.66-55.64 55.64c3.12.44 6.2 1.15 9.2 2.12l52.1-52.1zm-190.59 26.65c-4.41-8.07-6.62-19.96-.5-32.86h5.32a2.5 2.5 0 0 0 0-5h-2.53c1.32-2.07 2.87-4.16 4.67-6.25a2.503 2.503 0 0 0 4.26 2.16l5.61-5.79c.96-.99.94-2.57-.05-3.54-.5-.49-1.16-.72-1.81-.7a90.13 90.13 0 0 1 6.32-4.89c.01-.01.03-.02.04-.03v2.55a2.5 2.5 0 0 0 5 0v-5.72c15.11-8.56 27.57-5.81 38.69 1.15l-1.65 1.95c-.89 1.05-.76 2.63.3 3.52 1.05.89 2.63.76 3.52-.3l1.99-2.35c2.8 2.05 5.53 4.32 8.2 6.69l-18.24 21.59c-4.28 5.24 2.11 7.82 2.41 10.25.32 2.63-.64 4.65-1.96 6.09v23.98l10.15 18.29-4.37 2.43-9.75-17.57H241.7c-3.92 2.84-9.49 4.86-13.62 2.99 0 0-12.73-5.67-19.83-18.64zm37.92 10.64h16.65v-19.19l-9.7-2.71c-4.91-1.29-9.45-1.87-11.94 1.8-2.17 3.19-3.29 5.28-4.35 8.38-1.96 5.74 7.19 10.28 9.34 11.72zm-26.31-6.38c1.05.89 2.63.76 3.52-.3l5.9-6.99c.89-1.05.76-2.63-.3-3.52a2.493 2.493 0 0 0-3.52.3l-5.9 6.99c-.89 1.06-.76 2.63.3 3.52zm-8.1 195.67-42.2-76.05-6.99 3.88 16.14 29.09c-1.02.41-2.06.78-3.14 1.1-17.71 5.24-36.39-4.91-41.63-22.63-5.24-17.72 4.9-36.4 22.62-41.64 17.71-5.24 36.39 4.91 41.63 22.63 3.67 12.42-.22 25.3-8.97 33.71l7.95 14.32c15.12-12.22 22.22-32.77 16.37-52.57-7.76-26.22-35.3-41.19-61.51-33.43-26.21 7.76-41.18 35.3-33.42 61.52 7.76 26.22 35.3 41.19 61.51 33.43 2.22-.66 4.35-1.47 6.39-2.4l14.38 25.92-11.62 6.45 17.58 31.68 6.99-3.88-13.7-24.68 11.62-6.45zm107.36-46.71a4.225 4.225 0 0 1-2.93 3.19l-39.88 11.8a4.783 4.783 0 0 1-4.09-8.51l13-9.07-6.12-11.04-73.13 40.61-5.87-10.57 55.66-72.12-7.7-13.89 7-3.88 7.42 13.38 66.43-19.66 4.15 6.46-21.8 25.09c8.02 5.43 18.3 7.37 28.29 4.42 17.71-5.24 27.86-23.92 22.62-41.64-5.24-17.72-23.92-27.87-41.63-22.63-14.72 4.36-24.21 18-23.98 32.65l-15.73 4.66c-2.48-23.3 11.91-45.77 35.18-52.65 26.21-7.76 53.75 7.21 61.51 33.43 7.76 26.22-7.21 53.76-33.42 61.52-23.27 6.88-47.56-4.14-58.16-25.04l15.73-4.66a33.45 33.45 0 0 0 3.56 4.69l12.81-14.75-51.58 15.26 14.93 26.93 10.01-11.52a54.53 54.53 0 0 0 6.05 5.23l-11.93 13.73 6.31 11.37.48-.34c1.65-1.15 3.45-2.01 5.31-2.56 5.82-1.72 12.28-.52 17.12 3.52l2.97 2.48c1.18 1.02 1.73 2.59 1.41 4.11zm-43.91-20.62-15.23-27.47-48.52 62.87 63.75-35.4zm-57.76-36.75 4.31-2.53c-8-13.66-20.65-23.89-35.62-28.8l-1.56 4.75c13.82 4.53 25.49 13.97 32.87 26.58zm-36.63-58.1-70-70-5.66 5.66 70 70 5.66-5.66zM105.7 392.85l5.66 5.66 63-63-5.66-5.66-63 63z"
       id="path5"
       inkscape:connector-curvature="0" />
  </g>
</svg>
